<svg width="28" height="36" viewBox="0 0 28 36" fill="none" xmlns="http://www.w3.org/2000/svg">
<path d="M14 35.417C15.925 35.417 17.5 33.8045 17.5 31.8337H10.5C10.5 33.8045 12.075 35.417 14 35.417ZM24.5 24.667V15.7087C24.5 10.2082 21.6475 5.60366 16.625 4.38532V3.16699C16.625 1.67991 15.4525 0.479492 14 0.479492C12.5475 0.479492 11.375 1.67991 11.375 3.16699V4.38532C6.37 5.60366 3.5 10.1903 3.5 15.7087V24.667L0 28.2503V30.042H28V28.2503L24.5 24.667ZM21 26.4587H7V15.7087C7 11.2653 9.6425 7.64616 14 7.64616C18.3575 7.64616 21 11.2653 21 15.7087V26.4587Z" fill="black"/>
</svg>
