<svg width="28" height="8" viewBox="0 0 28 8" fill="none" xmlns="http://www.w3.org/2000/svg">
<path d="M3.99984 0.666504C2.1665 0.666504 0.666504 2.1665 0.666504 3.99984C0.666504 5.83317 2.1665 7.33317 3.99984 7.33317C5.83317 7.33317 7.33317 5.83317 7.33317 3.99984C7.33317 2.1665 5.83317 0.666504 3.99984 0.666504ZM23.9998 0.666504C22.1665 0.666504 20.6665 2.1665 20.6665 3.99984C20.6665 5.83317 22.1665 7.33317 23.9998 7.33317C25.8332 7.33317 27.3332 5.83317 27.3332 3.99984C27.3332 2.1665 25.8332 0.666504 23.9998 0.666504ZM13.9998 0.666504C12.1665 0.666504 10.6665 2.1665 10.6665 3.99984C10.6665 5.83317 12.1665 7.33317 13.9998 7.33317C15.8332 7.33317 17.3332 5.83317 17.3332 3.99984C17.3332 2.1665 15.8332 0.666504 13.9998 0.666504Z" fill="black"/>
</svg>
