<svg width="34" height="31" viewBox="0 0 34 31" fill="none" xmlns="http://www.w3.org/2000/svg">
<path d="M24.5002 0C21.6002 0 18.8168 1.35 17.0002 3.48333C15.1835 1.35 12.4002 0 9.50016 0C4.36683 0 0.333496 4.03333 0.333496 9.16667C0.333496 15.4667 6.00016 20.6 14.5835 28.4L17.0002 30.5833L19.4168 28.3833C28.0002 20.6 33.6668 15.4667 33.6668 9.16667C33.6668 4.03333 29.6335 0 24.5002 0ZM17.1668 25.9167L17.0002 26.0833L16.8335 25.9167C8.90016 18.7333 3.66683 13.9833 3.66683 9.16667C3.66683 5.83333 6.16683 3.33333 9.50016 3.33333C12.0668 3.33333 14.5668 4.98333 15.4502 7.26667H18.5668C19.4335 4.98333 21.9335 3.33333 24.5002 3.33333C27.8335 3.33333 30.3335 5.83333 30.3335 9.16667C30.3335 13.9833 25.1002 18.7333 17.1668 25.9167Z" fill="black"/>
</svg>
