<svg width="39" height="35" viewBox="0 0 39 35" fill="none" xmlns="http://www.w3.org/2000/svg">
<path d="M13.875 0.75L10.4438 4.5H4.5C2.4375 4.5 0.75 6.1875 0.75 8.25V30.75C0.75 32.8125 2.4375 34.5 4.5 34.5H34.5C36.5625 34.5 38.25 32.8125 38.25 30.75V8.25C38.25 6.1875 36.5625 4.5 34.5 4.5H28.5562L25.125 0.75H13.875ZM19.5 28.875C14.325 28.875 10.125 24.675 10.125 19.5C10.125 14.325 14.325 10.125 19.5 10.125C24.675 10.125 28.875 14.325 28.875 19.5C28.875 24.675 24.675 28.875 19.5 28.875Z" fill="white"/>
</svg>
