<svg width="128" height="54" viewBox="0 0 128 54" fill="none" xmlns="http://www.w3.org/2000/svg">
<path d="M0 4C0 1.79086 1.79086 0 4 0H124C126.209 0 128 1.79086 128 4V50C128 52.2091 126.209 54 124 54H4C1.79086 54 0 52.2091 0 50V4Z" fill="#999999"/>
<path d="M27.38 27.9H22.92V21.66H27.38V27.9ZM21.28 27.9H18.54V29.24H31.76V27.9H29.02V21.66H31.8V20.34H18.5V21.66H21.28V27.9ZM17.06 32.82V34.18H33.32V32.82H17.06ZM43.9984 32.92V29.54H49.7384V28.22H38.6984V25.32H49.3184V19.86H37.0384V21.2H47.7184V24H37.0784V29.54H42.3384V32.92H35.0384V34.26H51.3384V32.92H43.9984ZM67.7969 18.54H66.1569V27.86H67.7969V18.54ZM57.2169 21.04H60.1369V25.7C59.1569 25.76 58.1769 25.8 57.2169 25.82V21.04ZM64.3569 25.36C63.4969 25.46 62.6169 25.56 61.7169 25.62V21.04H63.4769V19.74H53.8569V21.04H55.6169V25.86C54.8369 25.88 54.0769 25.88 53.3769 25.88L53.5369 27.24C56.6969 27.22 60.8769 27.1 64.4369 26.56L64.3569 25.36ZM57.7569 34.98V33.02H67.7969V28.72H56.0769V30H66.1769V31.8H56.1369V36.28H68.4769V34.98H57.7569ZM88.9706 31.88H90.6306V18.56H88.9706V21.96H85.9706V23.28H88.9706V25.38H85.9706V26.72H88.9706V31.88ZM79.7506 21.32H82.4506V27.68C81.5506 27.72 80.6306 27.76 79.7506 27.78V21.32ZM86.3906 27.36C85.6506 27.46 84.8506 27.54 84.0506 27.58V21.32H85.8306V20H76.3906V21.32H78.1706V27.8C77.3706 27.82 76.5906 27.82 75.9106 27.82L76.0906 29.18C78.9906 29.18 83.0506 29.12 86.4906 28.58L86.3906 27.36ZM80.7706 34.74V30.8H79.1306V36.08H91.0906V34.74H80.7706ZM104.829 26.72C102.189 25.9 100.309 23.8 100.309 21.44V21.04H104.369V19.7H94.5291V21.04H98.6291V21.44C98.6291 23.9 96.7891 26.14 94.0691 27L94.9091 28.3C97.0491 27.56 98.7091 26 99.4891 24.02C100.309 25.88 101.969 27.32 104.029 27.98L104.829 26.72ZM106.949 34.9H98.6291V32.58H106.949V34.9ZM106.949 31.3H98.6291V29.12H97.0091V36.24H108.569V29.12H106.949V31.3ZM106.929 18.54V28.26H108.569V18.54H106.929Z" fill="white"/>
</svg>
