<svg width="142" height="54" viewBox="0 0 142 54" fill="none" xmlns="http://www.w3.org/2000/svg">
<path d="M0 4C0 1.79086 1.79086 0 4 0H138C140.209 0 142 1.79086 142 4V50C142 52.2091 140.209 54 138 54H4C1.79086 54 0 52.2091 0 50V4Z" fill="#F6F4FC"/>
<path fill-rule="evenodd" clip-rule="evenodd" d="M25 32L28 29.06C27.61 29.02 27.32 29 27 29C24.33 29 19 30.34 19 33V35H28L25 32ZM27 27C29.21 27 31 25.21 31 23C31 20.79 29.21 19 27 19C24.79 19 23 20.79 23 23C23 25.21 24.79 27 27 27Z" fill="#2656FF"/>
<path fill-rule="evenodd" clip-rule="evenodd" d="M31.47 35.5L28 32L29.4 30.59L31.47 32.67L36.6 27.5L38 28.91L31.47 35.5Z" fill="#2656FF"/>
<path d="M53.3855 21.04H56.2455V25.76C55.2855 25.8 54.3255 25.82 53.3855 25.84V21.04ZM60.4455 25.44C59.6055 25.52 58.7255 25.6 57.8255 25.66V21.04H59.6055V19.74H50.0255V21.04H51.7855V25.88C51.0055 25.88 50.2255 25.88 49.5255 25.88L49.6855 27.24C52.7855 27.22 56.9455 27.18 60.5455 26.62L60.4455 25.44ZM53.6455 33.02H63.3855V28.72H51.9855V30H61.7655V31.8H52.0455V36.28H64.0455V34.98H53.6455V33.02ZM63.3855 22.48V18.54H61.7455V27.86H63.3855V23.84H66.0455V22.48H63.3855ZM76.4039 32.92V29.54H82.1439V28.22H71.1039V25.32H81.7239V19.86H69.4439V21.2H80.1239V24H69.4839V29.54H74.7439V32.92H67.4439V34.26H83.7439V32.92H76.4039ZM93.5423 20.58C96.2823 20.58 98.1423 21.6 98.1423 23.18C98.1423 24.78 96.2823 25.8 93.5423 25.8C90.8223 25.8 88.9623 24.78 88.9623 23.18C88.9623 21.6 90.8223 20.58 93.5423 20.58ZM93.5423 27.12C97.2823 27.12 99.8223 25.6 99.8223 23.18C99.8223 20.78 97.2823 19.26 93.5423 19.26C89.8223 19.26 87.2823 20.78 87.2823 23.18C87.2823 25.6 89.8223 27.12 93.5423 27.12ZM101.702 28.82H85.4623V30.18H92.7223V36.5H94.3623V30.18H101.702V28.82ZM109.756 25.86C112.696 25.5 115.396 24.18 116.376 22.2C117.376 24.18 120.056 25.5 122.996 25.86L123.576 24.56C120.436 24.2 117.576 22.66 117.436 20.68H123.016V19.36H109.756V20.68H115.316C115.176 22.66 112.316 24.2 109.176 24.56L109.756 25.86ZM120.836 33.3C120.836 34.5 119.156 35.2 116.356 35.2C113.536 35.2 111.876 34.5 111.876 33.3C111.876 32.1 113.536 31.42 116.356 31.42C119.156 31.42 120.836 32.1 120.836 33.3ZM124.476 28.26V26.94H108.256V28.26H115.536V30.18C112.196 30.34 110.216 31.44 110.216 33.3C110.216 35.34 112.536 36.46 116.376 36.46C120.196 36.46 122.496 35.34 122.496 33.3C122.496 31.44 120.536 30.34 117.196 30.18V28.26H124.476Z" fill="#2656FF"/>
</svg>
