<svg width="119" height="54" viewBox="0 0 119 54" fill="none" xmlns="http://www.w3.org/2000/svg">
<rect width="119" height="54" rx="4" fill="#999999"/>
<path d="M31 27C33.21 27 35 25.21 35 23C35 20.79 33.21 19 31 19C28.79 19 27 20.79 27 23C27 25.21 28.79 27 31 27ZM22 25V22H20V25H17V27H20V30H22V27H25V25H22ZM31 29C28.33 29 23 30.34 23 33V35H39V33C39 30.34 33.67 29 31 29Z" fill="white"/>
<path d="M53.2823 21.04H56.1423V25.76C55.1823 25.8 54.2223 25.82 53.2823 25.84V21.04ZM60.3423 25.44C59.5023 25.52 58.6223 25.6 57.7223 25.66V21.04H59.5023V19.74H49.9223V21.04H51.6823V25.88C50.9023 25.88 50.1223 25.88 49.4223 25.88L49.5823 27.24C52.6823 27.22 56.8423 27.18 60.4423 26.62L60.3423 25.44ZM53.5423 33.02H63.2823V28.72H51.8823V30H61.6623V31.8H51.9423V36.28H63.9423V34.98H53.5423V33.02ZM63.2823 22.48V18.54H61.6423V27.86H63.2823V23.84H65.9423V22.48H63.2823ZM76.3008 32.92V29.54H82.0408V28.22H71.0008V25.32H81.6208V19.86H69.3408V21.2H80.0208V24H69.3808V29.54H74.6408V32.92H67.3408V34.26H83.6408V32.92H76.3008ZM98.4392 18.54V29.22H100.079V18.54H98.4392ZM94.1192 29.58C90.4192 29.58 88.0992 30.84 88.0992 33.02C88.0992 35.2 90.4192 36.46 94.1192 36.46C97.8192 36.46 100.139 35.2 100.139 33.02C100.139 30.84 97.8192 29.58 94.1192 29.58ZM94.1192 30.88C96.8392 30.88 98.4992 31.68 98.4992 33.02C98.4992 34.36 96.8392 35.16 94.1192 35.16C91.3992 35.16 89.7192 34.36 89.7192 33.02C89.7192 31.68 91.3992 30.88 94.1192 30.88ZM90.4392 19.68C87.7392 19.68 85.7792 21.38 85.7792 23.86C85.7792 26.36 87.7392 28.06 90.4392 28.06C93.1592 28.06 95.1392 26.36 95.1392 23.86C95.1392 21.38 93.1592 19.68 90.4392 19.68ZM90.4392 21.04C92.2392 21.04 93.5392 22.22 93.5392 23.86C93.5392 25.54 92.2392 26.7 90.4392 26.7C88.6592 26.7 87.3792 25.54 87.3792 23.86C87.3792 22.22 88.6592 21.04 90.4392 21.04Z" fill="white"/>
</svg>
