<svg width="119" height="54" viewBox="0 0 119 54" fill="none" xmlns="http://www.w3.org/2000/svg">
<rect width="119" height="54" rx="4" fill="#2656FF"/>
<path d="M31 27C33.21 27 35 25.21 35 23C35 20.79 33.21 19 31 19C28.79 19 27 20.79 27 23C27 25.21 28.79 27 31 27ZM22 25V22H20V25H17V27H20V30H22V27H25V25H22ZM31 29C28.33 29 23 30.34 23 33V35H39V33C39 30.34 33.67 29 31 29Z" fill="white"/>
<path d="M53.2823 21.04H56.1423V25.76C55.1823 25.8 54.2223 25.82 53.2823 25.84V21.04ZM60.3423 25.44C59.5023 25.52 58.6223 25.6 57.7223 25.66V21.04H59.5023V19.74H49.9223V21.04H51.6823V25.88C50.9023 25.88 50.1223 25.88 49.4223 25.88L49.5823 27.24C52.6823 27.22 56.8423 27.18 60.4423 26.62L60.3423 25.44ZM53.5423 33.02H63.2823V28.72H51.8823V30H61.6623V31.8H51.9423V36.28H63.9423V34.98H53.5423V33.02ZM63.2823 22.48V18.54H61.6423V27.86H63.2823V23.84H65.9423V22.48H63.2823ZM76.3008 32.92V29.54H82.0408V28.22H71.0008V25.32H81.6208V19.86H69.3408V21.2H80.0208V24H69.3808V29.54H74.6408V32.92H67.3408V34.26H83.6408V32.92H76.3008ZM93.4392 20.58C96.1792 20.58 98.0392 21.6 98.0392 23.18C98.0392 24.78 96.1792 25.8 93.4392 25.8C90.7192 25.8 88.8592 24.78 88.8592 23.18C88.8592 21.6 90.7192 20.58 93.4392 20.58ZM93.4392 27.12C97.1792 27.12 99.7192 25.6 99.7192 23.18C99.7192 20.78 97.1792 19.26 93.4392 19.26C89.7192 19.26 87.1792 20.78 87.1792 23.18C87.1792 25.6 89.7192 27.12 93.4392 27.12ZM101.599 28.82H85.3592V30.18H92.6192V36.5H94.2592V30.18H101.599V28.82Z" fill="white"/>
</svg>
