<svg width="34" height="34" viewBox="0 0 34 34" fill="none" xmlns="http://www.w3.org/2000/svg">
<path d="M17.0002 0.947266C7.80016 0.947266 0.333496 8.27228 0.333496 17.2978C0.333496 26.3232 7.80016 33.6482 17.0002 33.6482C26.2002 33.6482 33.6668 26.3232 33.6668 17.2978C33.6668 8.27228 26.2002 0.947266 17.0002 0.947266ZM17.0002 5.85241C19.7668 5.85241 22.0002 8.04338 22.0002 10.7576C22.0002 13.4717 19.7668 15.6627 17.0002 15.6627C14.2335 15.6627 12.0002 13.4717 12.0002 10.7576C12.0002 8.04338 14.2335 5.85241 17.0002 5.85241ZM17.0002 29.0701C12.8335 29.0701 9.15016 26.9772 7.00016 23.8052C7.05016 20.5515 13.6668 18.7693 17.0002 18.7693C20.3168 18.7693 26.9502 20.5515 27.0002 23.8052C24.8502 26.9772 21.1668 29.0701 17.0002 29.0701Z" fill="#999999"/>
</svg>
