<svg width="39" height="38" viewBox="0 0 39 38" fill="none" xmlns="http://www.w3.org/2000/svg">
<path d="M37.1133 16.2348H33.8806C33.4896 14.4811 32.7901 12.8364 31.8429 11.3659L34.0678 9.16563C34.4148 8.82252 34.4148 8.26701 34.0678 7.9239L30.6533 4.54726C30.3064 4.20415 29.7446 4.20415 29.3977 4.54726L27.1728 6.74752C25.6858 5.81078 24.0281 5.11911 22.2493 4.73243V1.53553C22.2493 1.05082 21.8528 0.658691 21.3626 0.658691H16.5328C16.0426 0.658691 15.6461 1.05082 15.6461 1.53553V4.73243C13.8452 5.12456 12.1655 5.82712 10.662 6.79109L8.49768 4.65074C8.15072 4.30763 7.58898 4.30763 7.24203 4.65074L3.82754 8.02737C3.48058 8.37048 3.48058 8.92599 3.82754 9.2691L6.01391 11.4312C5.08319 12.8854 4.40029 14.5029 4.01478 16.2348H0.886667C0.396522 16.2348 0 16.6269 0 17.1116V21.8879C0 22.3726 0.396522 22.7647 0.886667 22.7647H4.01478C4.4058 24.5184 5.10522 26.1632 6.05797 27.6282L3.73391 29.9265C3.38696 30.2696 3.38696 30.8251 3.73391 31.1682L7.14841 34.5448C7.49536 34.8879 8.0571 34.8879 8.40406 34.5448L10.7281 32.2465C12.2151 33.1833 13.8728 33.8749 15.6516 34.2616V37.0555C15.6516 37.5402 16.0481 37.9324 16.5383 37.9324H21.3681C21.8583 37.9324 22.2548 37.5402 22.2548 37.0555V34.2616C24.0281 33.8749 25.6913 33.1833 27.1783 32.2465L29.5023 34.5448C29.8493 34.8879 30.411 34.8879 30.758 34.5448L34.1725 31.1682C34.5194 30.8251 34.5194 30.2696 34.1725 29.9265L31.8484 27.6282C32.7957 26.1577 33.4951 24.5184 33.8861 22.7593H37.1188C37.609 22.7593 38.0055 22.3672 38.0055 21.8825V17.1062C38 16.6269 37.6035 16.2348 37.1133 16.2348ZM18.9504 27.9876C14.2087 27.9876 10.3646 24.1862 10.3646 19.497C10.3646 14.8079 14.2087 11.0064 18.9504 11.0064C23.6922 11.0064 27.5362 14.8079 27.5362 19.497C27.5362 24.1862 23.6922 27.9876 18.9504 27.9876Z" fill="#999999"/>
</svg>
