<svg width="30" height="31" viewBox="0 0 30 31" fill="none" xmlns="http://www.w3.org/2000/svg">
<path d="M28.3333 16.933H1.66667C0.75 16.933 0 17.6688 0 18.5681V28.3783C0 29.2776 0.75 30.0134 1.66667 30.0134H28.3333C29.25 30.0134 30 29.2776 30 28.3783V18.5681C30 17.6688 29.25 16.933 28.3333 16.933ZM6.66667 26.7433C4.83333 26.7433 3.33333 25.2718 3.33333 23.4732C3.33333 21.6746 4.83333 20.2031 6.66667 20.2031C8.5 20.2031 10 21.6746 10 23.4732C10 25.2718 8.5 26.7433 6.66667 26.7433ZM28.3333 0.58252H1.66667C0.75 0.58252 0 1.31829 0 2.21757V12.0279C0 12.9271 0.75 13.6629 1.66667 13.6629H28.3333C29.25 13.6629 30 12.9271 30 12.0279V2.21757C30 1.31829 29.25 0.58252 28.3333 0.58252ZM6.66667 10.3928C4.83333 10.3928 3.33333 8.92127 3.33333 7.12271C3.33333 5.32416 4.83333 3.85262 6.66667 3.85262C8.5 3.85262 10 5.32416 10 7.12271C10 8.92127 8.5 10.3928 6.66667 10.3928Z" fill="#999999"/>
</svg>
